# xmcd CD database file
#
# Track frame offsets:
#	150
#	15952
#	30360
#
# Disc length: 615 seconds
#
# Revision: 0
# Processed by: cddbd v1.5PL3 Copyright (c) Steve Scherf et al.
# Submitted via: CDex 1.50beta9
#
DISCID=0f026503
DTITLE=井上陽水奥田民生佗 - ありがとう
DYEAR=1900
DGENRE=JPop
TTITLE0=ありがとう
TTITLE1=佗び助（ボツテイク）
TTITLE2=ありがとう（オリジナルカラオケ）
EXTD=
EXTT0=
EXTT1=
EXTT2=
PLAYORDER=
